<mxfile host="Electron" modified="2023-05-07T23:43:31.217Z" agent="Mozilla/5.0 (Windows NT 10.0; Win64; x64) AppleWebKit/537.36 (KHTML, like Gecko) draw.io/21.2.1 Chrome/112.0.5615.87 Electron/24.1.2 Safari/537.36" etag="zHJkjwzdNUGoP3IFYZ8r" version="21.2.1" type="device">
  <diagram name="Page-1" id="HPhd7IpR-Z_FeIlUBhBd">
    <mxGraphModel dx="2990" dy="1738" grid="1" gridSize="10" guides="1" tooltips="1" connect="1" arrows="1" fold="1" page="1" pageScale="1" pageWidth="850" pageHeight="1100" math="0" shadow="0">
      <root>
        <mxCell id="0" />
        <mxCell id="1" parent="0" />
        <mxCell id="mLs_Ntx7UXhHXpNAd6NU-1" value="&lt;b&gt;&lt;font style=&quot;font-size: 14px;&quot;&gt;1.0 &lt;br&gt;Building Maintenance Management System&lt;/font&gt;&lt;/b&gt;" style="rounded=0;whiteSpace=wrap;html=1;" parent="1" vertex="1">
          <mxGeometry x="240" y="-90" width="120" height="100" as="geometry" />
        </mxCell>
        <mxCell id="mLs_Ntx7UXhHXpNAd6NU-2" value="&lt;b&gt;1.2&lt;br&gt;Register &lt;br&gt;Maint Staff&lt;/b&gt;" style="rounded=0;whiteSpace=wrap;html=1;" parent="1" vertex="1">
          <mxGeometry x="-710" y="160" width="80" height="60" as="geometry" />
        </mxCell>
        <mxCell id="mLs_Ntx7UXhHXpNAd6NU-3" value="&lt;b&gt;1.3&lt;br&gt;Register Build Manager&lt;/b&gt;" style="rounded=0;whiteSpace=wrap;html=1;" parent="1" vertex="1">
          <mxGeometry x="-380" y="160" width="80" height="60" as="geometry" />
        </mxCell>
        <mxCell id="mLs_Ntx7UXhHXpNAd6NU-4" value="&lt;b&gt;1.4&lt;br&gt;Create Request&lt;/b&gt;" style="rounded=0;whiteSpace=wrap;html=1;" parent="1" vertex="1">
          <mxGeometry x="-60" y="160" width="80" height="60" as="geometry" />
        </mxCell>
        <mxCell id="mLs_Ntx7UXhHXpNAd6NU-5" value="&lt;b&gt;1.5&lt;br&gt;Add/Update&lt;br&gt;Maint Status&lt;/b&gt;" style="rounded=0;whiteSpace=wrap;html=1;" parent="1" vertex="1">
          <mxGeometry x="260" y="160" width="80" height="60" as="geometry" />
        </mxCell>
        <mxCell id="mLs_Ntx7UXhHXpNAd6NU-6" value="&lt;b&gt;1.6&lt;br&gt;Process&lt;br&gt;Payment&lt;/b&gt;" style="rounded=0;whiteSpace=wrap;html=1;" parent="1" vertex="1">
          <mxGeometry x="570" y="160" width="80" height="60" as="geometry" />
        </mxCell>
        <mxCell id="mLs_Ntx7UXhHXpNAd6NU-7" value="&lt;b&gt;1.7&lt;br&gt;View Payment History&lt;/b&gt;" style="rounded=0;whiteSpace=wrap;html=1;" parent="1" vertex="1">
          <mxGeometry x="860" y="160" width="80" height="60" as="geometry" />
        </mxCell>
        <mxCell id="mLs_Ntx7UXhHXpNAd6NU-8" value="&lt;b&gt;1.8&lt;br&gt;Provide Feedback&lt;/b&gt;" style="rounded=0;whiteSpace=wrap;html=1;" parent="1" vertex="1">
          <mxGeometry x="1140" y="160" width="80" height="60" as="geometry" />
        </mxCell>
        <mxCell id="mLs_Ntx7UXhHXpNAd6NU-9" value="&lt;b&gt;1.1&lt;br&gt;Register &lt;br&gt;Apart Owner&lt;/b&gt;" style="rounded=0;whiteSpace=wrap;html=1;" parent="1" vertex="1">
          <mxGeometry x="-1020" y="160" width="80" height="60" as="geometry" />
        </mxCell>
        <mxCell id="mLs_Ntx7UXhHXpNAd6NU-10" value="&lt;b&gt;1.9&lt;br&gt;Add/Delete&lt;br&gt;Manager&lt;br&gt;&lt;/b&gt;" style="rounded=0;whiteSpace=wrap;html=1;" parent="1" vertex="1">
          <mxGeometry x="1460" y="160" width="80" height="60" as="geometry" />
        </mxCell>
        <mxCell id="mLs_Ntx7UXhHXpNAd6NU-13" value="&lt;b&gt;1.1.1&lt;/b&gt;&lt;br&gt;Manage Request" style="rounded=0;whiteSpace=wrap;html=1;" parent="1" vertex="1">
          <mxGeometry x="-1100" y="380" width="80" height="60" as="geometry" />
        </mxCell>
        <mxCell id="mLs_Ntx7UXhHXpNAd6NU-14" value="&lt;b&gt;1.1.2&lt;/b&gt;&lt;br&gt;Create&lt;br&gt;Account" style="rounded=0;whiteSpace=wrap;html=1;" parent="1" vertex="1">
          <mxGeometry x="-940" y="380" width="80" height="60" as="geometry" />
        </mxCell>
        <mxCell id="mLs_Ntx7UXhHXpNAd6NU-17" value="" style="endArrow=classic;html=1;rounded=0;entryX=0.5;entryY=0;entryDx=0;entryDy=0;exitX=0;exitY=0.5;exitDx=0;exitDy=0;" parent="1" source="mLs_Ntx7UXhHXpNAd6NU-1" target="mLs_Ntx7UXhHXpNAd6NU-9" edge="1">
          <mxGeometry width="50" height="50" relative="1" as="geometry">
            <mxPoint x="170" y="120" as="sourcePoint" />
            <mxPoint x="220" y="70" as="targetPoint" />
            <Array as="points">
              <mxPoint x="-980" y="-40" />
            </Array>
          </mxGeometry>
        </mxCell>
        <mxCell id="mLs_Ntx7UXhHXpNAd6NU-18" value="" style="endArrow=classic;html=1;rounded=0;entryX=0.5;entryY=0;entryDx=0;entryDy=0;exitX=1;exitY=0.5;exitDx=0;exitDy=0;" parent="1" source="mLs_Ntx7UXhHXpNAd6NU-1" target="mLs_Ntx7UXhHXpNAd6NU-10" edge="1">
          <mxGeometry width="50" height="50" relative="1" as="geometry">
            <mxPoint x="150" y="150" as="sourcePoint" />
            <mxPoint x="200" y="100" as="targetPoint" />
            <Array as="points">
              <mxPoint x="1500" y="-40" />
            </Array>
          </mxGeometry>
        </mxCell>
        <mxCell id="mLs_Ntx7UXhHXpNAd6NU-22" value="" style="endArrow=classic;html=1;rounded=0;entryX=0.5;entryY=0;entryDx=0;entryDy=0;exitX=1;exitY=0.5;exitDx=0;exitDy=0;" parent="1" source="mLs_Ntx7UXhHXpNAd6NU-1" target="mLs_Ntx7UXhHXpNAd6NU-6" edge="1">
          <mxGeometry width="50" height="50" relative="1" as="geometry">
            <mxPoint x="650" y="120" as="sourcePoint" />
            <mxPoint x="700" y="70" as="targetPoint" />
            <Array as="points">
              <mxPoint x="610" y="-40" />
            </Array>
          </mxGeometry>
        </mxCell>
        <mxCell id="mLs_Ntx7UXhHXpNAd6NU-23" value="" style="endArrow=classic;html=1;rounded=0;entryX=0.5;entryY=0;entryDx=0;entryDy=0;exitX=1;exitY=0.5;exitDx=0;exitDy=0;" parent="1" source="mLs_Ntx7UXhHXpNAd6NU-1" target="mLs_Ntx7UXhHXpNAd6NU-8" edge="1">
          <mxGeometry width="50" height="50" relative="1" as="geometry">
            <mxPoint x="910" y="140" as="sourcePoint" />
            <mxPoint x="1070" y="150" as="targetPoint" />
            <Array as="points">
              <mxPoint x="1180" y="-40" />
            </Array>
          </mxGeometry>
        </mxCell>
        <mxCell id="mLs_Ntx7UXhHXpNAd6NU-24" value="" style="endArrow=classic;html=1;rounded=0;entryX=0.5;entryY=0;entryDx=0;entryDy=0;exitX=1;exitY=0.5;exitDx=0;exitDy=0;" parent="1" source="mLs_Ntx7UXhHXpNAd6NU-1" target="mLs_Ntx7UXhHXpNAd6NU-7" edge="1">
          <mxGeometry width="50" height="50" relative="1" as="geometry">
            <mxPoint x="660" y="120" as="sourcePoint" />
            <mxPoint x="710" y="70" as="targetPoint" />
            <Array as="points">
              <mxPoint x="900" y="-40" />
            </Array>
          </mxGeometry>
        </mxCell>
        <mxCell id="mLs_Ntx7UXhHXpNAd6NU-25" value="" style="endArrow=classic;html=1;rounded=0;entryX=0.5;entryY=0;entryDx=0;entryDy=0;exitX=0;exitY=0.5;exitDx=0;exitDy=0;" parent="1" source="mLs_Ntx7UXhHXpNAd6NU-1" target="mLs_Ntx7UXhHXpNAd6NU-2" edge="1">
          <mxGeometry width="50" height="50" relative="1" as="geometry">
            <mxPoint x="60" y="150" as="sourcePoint" />
            <mxPoint x="110" y="100" as="targetPoint" />
            <Array as="points">
              <mxPoint x="-670" y="-40" />
            </Array>
          </mxGeometry>
        </mxCell>
        <mxCell id="mLs_Ntx7UXhHXpNAd6NU-26" value="" style="endArrow=classic;html=1;rounded=0;entryX=0.5;entryY=0;entryDx=0;entryDy=0;exitX=0;exitY=0.5;exitDx=0;exitDy=0;" parent="1" source="mLs_Ntx7UXhHXpNAd6NU-1" target="mLs_Ntx7UXhHXpNAd6NU-3" edge="1">
          <mxGeometry width="50" height="50" relative="1" as="geometry">
            <mxPoint x="-150" y="150" as="sourcePoint" />
            <mxPoint x="-100" y="100" as="targetPoint" />
            <Array as="points">
              <mxPoint x="-340" y="-40" />
            </Array>
          </mxGeometry>
        </mxCell>
        <mxCell id="mLs_Ntx7UXhHXpNAd6NU-27" value="" style="endArrow=classic;html=1;rounded=0;entryX=0.5;entryY=0;entryDx=0;entryDy=0;exitX=0;exitY=0.5;exitDx=0;exitDy=0;" parent="1" source="mLs_Ntx7UXhHXpNAd6NU-1" target="mLs_Ntx7UXhHXpNAd6NU-4" edge="1">
          <mxGeometry width="50" height="50" relative="1" as="geometry">
            <mxPoint x="150" y="170" as="sourcePoint" />
            <mxPoint x="200" y="120" as="targetPoint" />
            <Array as="points">
              <mxPoint x="-20" y="-40" />
            </Array>
          </mxGeometry>
        </mxCell>
        <mxCell id="mLs_Ntx7UXhHXpNAd6NU-28" value="" style="endArrow=classic;html=1;rounded=0;entryX=0.5;entryY=0;entryDx=0;entryDy=0;exitX=0;exitY=0.5;exitDx=0;exitDy=0;" parent="1" source="mLs_Ntx7UXhHXpNAd6NU-9" target="mLs_Ntx7UXhHXpNAd6NU-13" edge="1">
          <mxGeometry width="50" height="50" relative="1" as="geometry">
            <mxPoint x="-970" y="240" as="sourcePoint" />
            <mxPoint x="-920" y="190" as="targetPoint" />
            <Array as="points">
              <mxPoint x="-1060" y="190" />
            </Array>
          </mxGeometry>
        </mxCell>
        <mxCell id="mLs_Ntx7UXhHXpNAd6NU-29" value="" style="endArrow=classic;html=1;rounded=0;entryX=0.5;entryY=0;entryDx=0;entryDy=0;exitX=1;exitY=0.5;exitDx=0;exitDy=0;" parent="1" source="mLs_Ntx7UXhHXpNAd6NU-9" target="mLs_Ntx7UXhHXpNAd6NU-14" edge="1">
          <mxGeometry width="50" height="50" relative="1" as="geometry">
            <mxPoint x="-740" y="330" as="sourcePoint" />
            <mxPoint x="-690" y="280" as="targetPoint" />
            <Array as="points">
              <mxPoint x="-900" y="190" />
            </Array>
          </mxGeometry>
        </mxCell>
        <mxCell id="mLs_Ntx7UXhHXpNAd6NU-30" value="&lt;b&gt;1.2.1&lt;/b&gt;&lt;br&gt;Manage&lt;br&gt;Request" style="rounded=0;whiteSpace=wrap;html=1;" parent="1" vertex="1">
          <mxGeometry x="-790" y="380" width="80" height="60" as="geometry" />
        </mxCell>
        <mxCell id="mLs_Ntx7UXhHXpNAd6NU-31" value="&lt;b&gt;1.2.2&lt;/b&gt;&lt;br&gt;Create&lt;br&gt;Account" style="rounded=0;whiteSpace=wrap;html=1;" parent="1" vertex="1">
          <mxGeometry x="-630" y="380" width="80" height="60" as="geometry" />
        </mxCell>
        <mxCell id="mLs_Ntx7UXhHXpNAd6NU-32" value="&lt;b&gt;1.3.1&lt;/b&gt;&lt;br&gt;Manage&amp;nbsp;&lt;br&gt;Request" style="rounded=0;whiteSpace=wrap;html=1;" parent="1" vertex="1">
          <mxGeometry x="-460" y="380" width="80" height="60" as="geometry" />
        </mxCell>
        <mxCell id="mLs_Ntx7UXhHXpNAd6NU-33" value="&lt;b&gt;1.3.2&lt;br&gt;&lt;/b&gt;Create&lt;br&gt;Account" style="rounded=0;whiteSpace=wrap;html=1;" parent="1" vertex="1">
          <mxGeometry x="-300" y="380" width="80" height="60" as="geometry" />
        </mxCell>
        <mxCell id="mLs_Ntx7UXhHXpNAd6NU-34" value="" style="endArrow=classic;html=1;rounded=0;entryX=0.5;entryY=0;entryDx=0;entryDy=0;exitX=0;exitY=0.5;exitDx=0;exitDy=0;" parent="1" source="mLs_Ntx7UXhHXpNAd6NU-2" target="mLs_Ntx7UXhHXpNAd6NU-30" edge="1">
          <mxGeometry width="50" height="50" relative="1" as="geometry">
            <mxPoint x="-630" y="310" as="sourcePoint" />
            <mxPoint x="-580" y="260" as="targetPoint" />
            <Array as="points">
              <mxPoint x="-750" y="190" />
            </Array>
          </mxGeometry>
        </mxCell>
        <mxCell id="mLs_Ntx7UXhHXpNAd6NU-35" value="" style="endArrow=classic;html=1;rounded=0;entryX=0.5;entryY=0;entryDx=0;entryDy=0;exitX=1;exitY=0.5;exitDx=0;exitDy=0;" parent="1" source="mLs_Ntx7UXhHXpNAd6NU-2" target="mLs_Ntx7UXhHXpNAd6NU-31" edge="1">
          <mxGeometry width="50" height="50" relative="1" as="geometry">
            <mxPoint x="-460" y="320" as="sourcePoint" />
            <mxPoint x="-410" y="270" as="targetPoint" />
            <Array as="points">
              <mxPoint x="-590" y="190" />
            </Array>
          </mxGeometry>
        </mxCell>
        <mxCell id="mLs_Ntx7UXhHXpNAd6NU-36" value="" style="endArrow=classic;html=1;rounded=0;entryX=0.5;entryY=0;entryDx=0;entryDy=0;exitX=0;exitY=0.5;exitDx=0;exitDy=0;" parent="1" source="mLs_Ntx7UXhHXpNAd6NU-3" target="mLs_Ntx7UXhHXpNAd6NU-32" edge="1">
          <mxGeometry width="50" height="50" relative="1" as="geometry">
            <mxPoint x="-330" y="260" as="sourcePoint" />
            <mxPoint x="-280" y="210" as="targetPoint" />
            <Array as="points">
              <mxPoint x="-420" y="190" />
            </Array>
          </mxGeometry>
        </mxCell>
        <mxCell id="mLs_Ntx7UXhHXpNAd6NU-37" value="" style="endArrow=classic;html=1;rounded=0;entryX=0.5;entryY=0;entryDx=0;entryDy=0;exitX=1;exitY=0.5;exitDx=0;exitDy=0;" parent="1" source="mLs_Ntx7UXhHXpNAd6NU-3" target="mLs_Ntx7UXhHXpNAd6NU-33" edge="1">
          <mxGeometry width="50" height="50" relative="1" as="geometry">
            <mxPoint x="-160" y="310" as="sourcePoint" />
            <mxPoint x="-110" y="260" as="targetPoint" />
            <Array as="points">
              <mxPoint x="-260" y="190" />
            </Array>
          </mxGeometry>
        </mxCell>
        <mxCell id="mLs_Ntx7UXhHXpNAd6NU-38" value="&lt;b&gt;1.4.1&lt;/b&gt;&lt;br&gt;Add Request&lt;br&gt;Details" style="rounded=0;whiteSpace=wrap;html=1;" parent="1" vertex="1">
          <mxGeometry x="-140" y="380" width="80" height="60" as="geometry" />
        </mxCell>
        <mxCell id="mLs_Ntx7UXhHXpNAd6NU-39" value="&lt;b&gt;1.4.2&lt;/b&gt;&lt;br&gt;Add Staff&lt;br&gt;Member" style="rounded=0;whiteSpace=wrap;html=1;" parent="1" vertex="1">
          <mxGeometry x="20" y="380" width="80" height="60" as="geometry" />
        </mxCell>
        <mxCell id="mLs_Ntx7UXhHXpNAd6NU-40" value="" style="endArrow=classic;html=1;rounded=0;entryX=0.5;entryY=0;entryDx=0;entryDy=0;exitX=0;exitY=0.5;exitDx=0;exitDy=0;" parent="1" source="mLs_Ntx7UXhHXpNAd6NU-4" target="mLs_Ntx7UXhHXpNAd6NU-38" edge="1">
          <mxGeometry width="50" height="50" relative="1" as="geometry">
            <mxPoint x="-50" y="240" as="sourcePoint" />
            <mxPoint y="190" as="targetPoint" />
            <Array as="points">
              <mxPoint x="-100" y="190" />
            </Array>
          </mxGeometry>
        </mxCell>
        <mxCell id="mLs_Ntx7UXhHXpNAd6NU-41" value="" style="endArrow=classic;html=1;rounded=0;exitX=1;exitY=0.5;exitDx=0;exitDy=0;entryX=0.5;entryY=0;entryDx=0;entryDy=0;" parent="1" source="mLs_Ntx7UXhHXpNAd6NU-4" target="mLs_Ntx7UXhHXpNAd6NU-39" edge="1">
          <mxGeometry width="50" height="50" relative="1" as="geometry">
            <mxPoint x="230" y="340" as="sourcePoint" />
            <mxPoint x="280" y="290" as="targetPoint" />
            <Array as="points">
              <mxPoint x="60" y="190" />
            </Array>
          </mxGeometry>
        </mxCell>
        <mxCell id="mLs_Ntx7UXhHXpNAd6NU-42" value="&lt;b&gt;1.5.1&lt;/b&gt;&lt;br&gt;Add &lt;br&gt;Maint Status" style="rounded=0;whiteSpace=wrap;html=1;" parent="1" vertex="1">
          <mxGeometry x="180" y="380" width="80" height="60" as="geometry" />
        </mxCell>
        <mxCell id="mLs_Ntx7UXhHXpNAd6NU-43" value="&lt;b&gt;1.5.2&lt;br&gt;&lt;/b&gt;Edit &lt;br&gt;Maint&amp;nbsp;Status" style="rounded=0;whiteSpace=wrap;html=1;" parent="1" vertex="1">
          <mxGeometry x="340" y="380" width="80" height="60" as="geometry" />
        </mxCell>
        <mxCell id="mLs_Ntx7UXhHXpNAd6NU-45" value="" style="endArrow=classic;html=1;rounded=0;entryX=0.5;entryY=0;entryDx=0;entryDy=0;exitX=0;exitY=0.5;exitDx=0;exitDy=0;" parent="1" source="mLs_Ntx7UXhHXpNAd6NU-5" target="mLs_Ntx7UXhHXpNAd6NU-42" edge="1">
          <mxGeometry width="50" height="50" relative="1" as="geometry">
            <mxPoint x="110" y="300" as="sourcePoint" />
            <mxPoint x="160" y="250" as="targetPoint" />
            <Array as="points">
              <mxPoint x="220" y="190" />
            </Array>
          </mxGeometry>
        </mxCell>
        <mxCell id="mLs_Ntx7UXhHXpNAd6NU-46" value="" style="endArrow=classic;html=1;rounded=0;entryX=0.5;entryY=0;entryDx=0;entryDy=0;exitX=1;exitY=0.5;exitDx=0;exitDy=0;" parent="1" source="mLs_Ntx7UXhHXpNAd6NU-5" target="mLs_Ntx7UXhHXpNAd6NU-43" edge="1">
          <mxGeometry width="50" height="50" relative="1" as="geometry">
            <mxPoint x="440" y="290" as="sourcePoint" />
            <mxPoint x="340" y="270" as="targetPoint" />
            <Array as="points">
              <mxPoint x="380" y="190" />
            </Array>
          </mxGeometry>
        </mxCell>
        <mxCell id="mLs_Ntx7UXhHXpNAd6NU-47" value="&lt;b&gt;1.6.1&lt;/b&gt;&lt;br&gt;Calculate Maint Fee" style="rounded=0;whiteSpace=wrap;html=1;" parent="1" vertex="1">
          <mxGeometry x="490" y="380" width="80" height="60" as="geometry" />
        </mxCell>
        <mxCell id="mLs_Ntx7UXhHXpNAd6NU-48" value="&lt;b&gt;1.6.2&lt;/b&gt;&lt;br&gt;Create&lt;br&gt;Budget" style="rounded=0;whiteSpace=wrap;html=1;" parent="1" vertex="1">
          <mxGeometry x="650" y="380" width="80" height="60" as="geometry" />
        </mxCell>
        <mxCell id="mLs_Ntx7UXhHXpNAd6NU-49" value="" style="endArrow=classic;html=1;rounded=0;entryX=0.5;entryY=0;entryDx=0;entryDy=0;exitX=0;exitY=0.5;exitDx=0;exitDy=0;" parent="1" source="mLs_Ntx7UXhHXpNAd6NU-6" target="mLs_Ntx7UXhHXpNAd6NU-47" edge="1">
          <mxGeometry width="50" height="50" relative="1" as="geometry">
            <mxPoint x="460" y="290" as="sourcePoint" />
            <mxPoint x="510" y="240" as="targetPoint" />
            <Array as="points">
              <mxPoint x="530" y="190" />
            </Array>
          </mxGeometry>
        </mxCell>
        <mxCell id="mLs_Ntx7UXhHXpNAd6NU-50" value="" style="endArrow=classic;html=1;rounded=0;entryX=0.5;entryY=0;entryDx=0;entryDy=0;exitX=1;exitY=0.5;exitDx=0;exitDy=0;" parent="1" source="mLs_Ntx7UXhHXpNAd6NU-6" target="mLs_Ntx7UXhHXpNAd6NU-48" edge="1">
          <mxGeometry width="50" height="50" relative="1" as="geometry">
            <mxPoint x="730" y="300" as="sourcePoint" />
            <mxPoint x="780" y="250" as="targetPoint" />
            <Array as="points">
              <mxPoint x="690" y="190" />
            </Array>
          </mxGeometry>
        </mxCell>
        <mxCell id="mLs_Ntx7UXhHXpNAd6NU-53" value="&lt;b&gt;1.8.1&lt;/b&gt;&lt;br&gt;Get Staff Feedback" style="rounded=0;whiteSpace=wrap;html=1;" parent="1" vertex="1">
          <mxGeometry x="1060" y="380" width="80" height="60" as="geometry" />
        </mxCell>
        <mxCell id="mLs_Ntx7UXhHXpNAd6NU-54" value="&lt;b&gt;1.8.2&lt;/b&gt;&lt;br&gt;Get Owner Feedback&amp;nbsp;" style="rounded=0;whiteSpace=wrap;html=1;" parent="1" vertex="1">
          <mxGeometry x="1220" y="380" width="80" height="60" as="geometry" />
        </mxCell>
        <mxCell id="mLs_Ntx7UXhHXpNAd6NU-55" value="&lt;b&gt;1.9.1&lt;/b&gt;&lt;br&gt;Process Admin Request" style="rounded=0;whiteSpace=wrap;html=1;" parent="1" vertex="1">
          <mxGeometry x="1380" y="380" width="80" height="60" as="geometry" />
        </mxCell>
        <mxCell id="mLs_Ntx7UXhHXpNAd6NU-56" value="&lt;b&gt;1.9.2&lt;/b&gt;&lt;br&gt;Retrieve Manager info" style="rounded=0;whiteSpace=wrap;html=1;" parent="1" vertex="1">
          <mxGeometry x="1540" y="380" width="80" height="60" as="geometry" />
        </mxCell>
        <mxCell id="mLs_Ntx7UXhHXpNAd6NU-59" value="" style="endArrow=classic;html=1;rounded=0;entryX=0.5;entryY=0;entryDx=0;entryDy=0;exitX=0;exitY=0.5;exitDx=0;exitDy=0;" parent="1" source="mLs_Ntx7UXhHXpNAd6NU-8" target="mLs_Ntx7UXhHXpNAd6NU-53" edge="1">
          <mxGeometry width="50" height="50" relative="1" as="geometry">
            <mxPoint x="1025" y="300" as="sourcePoint" />
            <mxPoint x="1075" y="250" as="targetPoint" />
            <Array as="points">
              <mxPoint x="1100" y="190" />
            </Array>
          </mxGeometry>
        </mxCell>
        <mxCell id="mLs_Ntx7UXhHXpNAd6NU-60" value="" style="endArrow=classic;html=1;rounded=0;entryX=0.5;entryY=0;entryDx=0;entryDy=0;exitX=1;exitY=0.5;exitDx=0;exitDy=0;" parent="1" source="mLs_Ntx7UXhHXpNAd6NU-8" target="mLs_Ntx7UXhHXpNAd6NU-54" edge="1">
          <mxGeometry width="50" height="50" relative="1" as="geometry">
            <mxPoint x="1275" y="250" as="sourcePoint" />
            <mxPoint x="1285" y="230" as="targetPoint" />
            <Array as="points">
              <mxPoint x="1260" y="190" />
            </Array>
          </mxGeometry>
        </mxCell>
        <mxCell id="mLs_Ntx7UXhHXpNAd6NU-61" value="" style="endArrow=classic;html=1;rounded=0;entryX=0.5;entryY=0;entryDx=0;entryDy=0;exitX=0;exitY=0.5;exitDx=0;exitDy=0;" parent="1" source="mLs_Ntx7UXhHXpNAd6NU-10" target="mLs_Ntx7UXhHXpNAd6NU-55" edge="1">
          <mxGeometry width="50" height="50" relative="1" as="geometry">
            <mxPoint x="1310" y="290" as="sourcePoint" />
            <mxPoint x="1360" y="240" as="targetPoint" />
            <Array as="points">
              <mxPoint x="1420" y="190" />
            </Array>
          </mxGeometry>
        </mxCell>
        <mxCell id="mLs_Ntx7UXhHXpNAd6NU-62" value="" style="endArrow=classic;html=1;rounded=0;entryX=0.5;entryY=0;entryDx=0;entryDy=0;exitX=1;exitY=0.5;exitDx=0;exitDy=0;" parent="1" source="mLs_Ntx7UXhHXpNAd6NU-10" target="mLs_Ntx7UXhHXpNAd6NU-56" edge="1">
          <mxGeometry width="50" height="50" relative="1" as="geometry">
            <mxPoint x="1530" y="300" as="sourcePoint" />
            <mxPoint x="1580" y="250" as="targetPoint" />
            <Array as="points">
              <mxPoint x="1580" y="190" />
            </Array>
          </mxGeometry>
        </mxCell>
        <mxCell id="8C3JMdhvOC04TNl1LNUp-1" value="" style="endArrow=classic;html=1;rounded=0;entryX=0.5;entryY=0;entryDx=0;entryDy=0;exitX=0.5;exitY=1;exitDx=0;exitDy=0;" parent="1" source="mLs_Ntx7UXhHXpNAd6NU-1" target="mLs_Ntx7UXhHXpNAd6NU-5" edge="1">
          <mxGeometry width="50" height="50" relative="1" as="geometry">
            <mxPoint x="320" y="170" as="sourcePoint" />
            <mxPoint x="370" y="120" as="targetPoint" />
          </mxGeometry>
        </mxCell>
        <mxCell id="8C3JMdhvOC04TNl1LNUp-14" value="" style="ellipse;whiteSpace=wrap;html=1;" parent="1" vertex="1">
          <mxGeometry x="-1050" y="240" width="10" height="10" as="geometry" />
        </mxCell>
        <mxCell id="8C3JMdhvOC04TNl1LNUp-15" value="" style="endArrow=classic;html=1;rounded=0;exitX=0.5;exitY=1;exitDx=0;exitDy=0;" parent="1" source="8C3JMdhvOC04TNl1LNUp-14" edge="1">
          <mxGeometry width="50" height="50" relative="1" as="geometry">
            <mxPoint x="-1040" y="300" as="sourcePoint" />
            <mxPoint x="-1045" y="300" as="targetPoint" />
          </mxGeometry>
        </mxCell>
        <mxCell id="8C3JMdhvOC04TNl1LNUp-16" value="Personal &amp;amp; &lt;br&gt;Apartment&lt;br style=&quot;border-color: var(--border-color);&quot;&gt;Info" style="edgeLabel;html=1;align=center;verticalAlign=middle;resizable=0;points=[];" parent="8C3JMdhvOC04TNl1LNUp-15" vertex="1" connectable="0">
          <mxGeometry x="-0.5467" y="5" relative="1" as="geometry">
            <mxPoint x="30" y="9" as="offset" />
          </mxGeometry>
        </mxCell>
        <mxCell id="8C3JMdhvOC04TNl1LNUp-19" value="" style="ellipse;fillColor=strokeColor;html=1;" parent="1" vertex="1">
          <mxGeometry x="-920" y="330" width="10" height="10" as="geometry" />
        </mxCell>
        <mxCell id="8C3JMdhvOC04TNl1LNUp-22" value="" style="endArrow=classic;html=1;rounded=0;exitX=0.5;exitY=0;exitDx=0;exitDy=0;" parent="1" source="8C3JMdhvOC04TNl1LNUp-19" edge="1">
          <mxGeometry width="50" height="50" relative="1" as="geometry">
            <mxPoint x="-810" y="250" as="sourcePoint" />
            <mxPoint x="-915" y="280" as="targetPoint" />
          </mxGeometry>
        </mxCell>
        <mxCell id="8C3JMdhvOC04TNl1LNUp-23" value="Valid/Invalid &lt;br&gt;Message" style="edgeLabel;html=1;align=center;verticalAlign=middle;resizable=0;points=[];" parent="8C3JMdhvOC04TNl1LNUp-22" vertex="1" connectable="0">
          <mxGeometry x="-0.44" y="3" relative="1" as="geometry">
            <mxPoint x="-32" y="-6" as="offset" />
          </mxGeometry>
        </mxCell>
        <mxCell id="8C3JMdhvOC04TNl1LNUp-24" value="" style="ellipse;whiteSpace=wrap;html=1;aspect=fixed;" parent="1" vertex="1">
          <mxGeometry x="-890" y="240" width="10" height="10" as="geometry" />
        </mxCell>
        <mxCell id="8C3JMdhvOC04TNl1LNUp-26" value="" style="endArrow=classic;html=1;rounded=0;exitX=0.5;exitY=1;exitDx=0;exitDy=0;" parent="1" source="8C3JMdhvOC04TNl1LNUp-24" edge="1">
          <mxGeometry width="50" height="50" relative="1" as="geometry">
            <mxPoint x="-880" y="290" as="sourcePoint" />
            <mxPoint x="-885" y="300" as="targetPoint" />
          </mxGeometry>
        </mxCell>
        <mxCell id="8C3JMdhvOC04TNl1LNUp-27" value="Registered&lt;br style=&quot;border-color: var(--border-color);&quot;&gt;&amp;nbsp;Owner Info" style="edgeLabel;html=1;align=center;verticalAlign=middle;resizable=0;points=[];" parent="8C3JMdhvOC04TNl1LNUp-26" vertex="1" connectable="0">
          <mxGeometry x="-0.4267" y="7" relative="1" as="geometry">
            <mxPoint x="28" y="6" as="offset" />
          </mxGeometry>
        </mxCell>
        <mxCell id="8C3JMdhvOC04TNl1LNUp-28" value="" style="endArrow=classic;html=1;rounded=0;exitX=0.5;exitY=0;exitDx=0;exitDy=0;" parent="1" edge="1">
          <mxGeometry width="50" height="50" relative="1" as="geometry">
            <mxPoint x="-1075" y="330" as="sourcePoint" />
            <mxPoint x="-1075" y="280" as="targetPoint" />
          </mxGeometry>
        </mxCell>
        <mxCell id="8C3JMdhvOC04TNl1LNUp-29" value="Confirmation" style="edgeLabel;html=1;align=center;verticalAlign=middle;resizable=0;points=[];" parent="8C3JMdhvOC04TNl1LNUp-28" vertex="1" connectable="0">
          <mxGeometry x="-0.3733" y="6" relative="1" as="geometry">
            <mxPoint x="-29" y="-4" as="offset" />
          </mxGeometry>
        </mxCell>
        <mxCell id="8C3JMdhvOC04TNl1LNUp-31" value="" style="endArrow=classic;html=1;rounded=0;exitX=0.5;exitY=0;exitDx=0;exitDy=0;" parent="1" edge="1">
          <mxGeometry width="50" height="50" relative="1" as="geometry">
            <mxPoint x="-765" y="330" as="sourcePoint" />
            <mxPoint x="-765" y="280" as="targetPoint" />
          </mxGeometry>
        </mxCell>
        <mxCell id="8C3JMdhvOC04TNl1LNUp-32" value="Confirmation" style="edgeLabel;html=1;align=center;verticalAlign=middle;resizable=0;points=[];" parent="8C3JMdhvOC04TNl1LNUp-31" vertex="1" connectable="0">
          <mxGeometry x="-0.3733" y="6" relative="1" as="geometry">
            <mxPoint x="-29" y="-4" as="offset" />
          </mxGeometry>
        </mxCell>
        <mxCell id="8C3JMdhvOC04TNl1LNUp-39" value="" style="ellipse;fillColor=strokeColor;html=1;" parent="1" vertex="1">
          <mxGeometry x="-610" y="330" width="10" height="10" as="geometry" />
        </mxCell>
        <mxCell id="8C3JMdhvOC04TNl1LNUp-40" value="" style="endArrow=classic;html=1;rounded=0;exitX=0.5;exitY=0;exitDx=0;exitDy=0;" parent="1" source="8C3JMdhvOC04TNl1LNUp-39" edge="1">
          <mxGeometry width="50" height="50" relative="1" as="geometry">
            <mxPoint x="-500" y="250" as="sourcePoint" />
            <mxPoint x="-605" y="280" as="targetPoint" />
          </mxGeometry>
        </mxCell>
        <mxCell id="8C3JMdhvOC04TNl1LNUp-41" value="Valid/Invalid &lt;br&gt;Message" style="edgeLabel;html=1;align=center;verticalAlign=middle;resizable=0;points=[];" parent="8C3JMdhvOC04TNl1LNUp-40" vertex="1" connectable="0">
          <mxGeometry x="-0.44" y="3" relative="1" as="geometry">
            <mxPoint x="-32" y="-6" as="offset" />
          </mxGeometry>
        </mxCell>
        <mxCell id="8C3JMdhvOC04TNl1LNUp-42" value="" style="ellipse;fillColor=strokeColor;html=1;" parent="1" vertex="1">
          <mxGeometry x="-280" y="330" width="10" height="10" as="geometry" />
        </mxCell>
        <mxCell id="8C3JMdhvOC04TNl1LNUp-43" value="" style="endArrow=classic;html=1;rounded=0;exitX=0.5;exitY=0;exitDx=0;exitDy=0;" parent="1" source="8C3JMdhvOC04TNl1LNUp-42" edge="1">
          <mxGeometry width="50" height="50" relative="1" as="geometry">
            <mxPoint x="-170" y="250" as="sourcePoint" />
            <mxPoint x="-275" y="280" as="targetPoint" />
          </mxGeometry>
        </mxCell>
        <mxCell id="8C3JMdhvOC04TNl1LNUp-44" value="Valid/Invalid &lt;br&gt;Message" style="edgeLabel;html=1;align=center;verticalAlign=middle;resizable=0;points=[];" parent="8C3JMdhvOC04TNl1LNUp-43" vertex="1" connectable="0">
          <mxGeometry x="-0.44" y="3" relative="1" as="geometry">
            <mxPoint x="-32" y="-6" as="offset" />
          </mxGeometry>
        </mxCell>
        <mxCell id="8C3JMdhvOC04TNl1LNUp-45" value="" style="ellipse;whiteSpace=wrap;html=1;" parent="1" vertex="1">
          <mxGeometry x="-440" y="330" width="10" height="10" as="geometry" />
        </mxCell>
        <mxCell id="8C3JMdhvOC04TNl1LNUp-46" value="" style="endArrow=classic;html=1;rounded=0;exitX=0.5;exitY=0;exitDx=0;exitDy=0;" parent="1" source="8C3JMdhvOC04TNl1LNUp-45" edge="1">
          <mxGeometry width="50" height="50" relative="1" as="geometry">
            <mxPoint x="-170" y="240" as="sourcePoint" />
            <mxPoint x="-435" y="280" as="targetPoint" />
          </mxGeometry>
        </mxCell>
        <mxCell id="8C3JMdhvOC04TNl1LNUp-47" value="Confirmation" style="edgeLabel;html=1;align=center;verticalAlign=middle;resizable=0;points=[];" parent="8C3JMdhvOC04TNl1LNUp-46" vertex="1" connectable="0">
          <mxGeometry x="-0.3733" y="6" relative="1" as="geometry">
            <mxPoint x="-29" y="-4" as="offset" />
          </mxGeometry>
        </mxCell>
        <mxCell id="8C3JMdhvOC04TNl1LNUp-48" value="" style="ellipse;whiteSpace=wrap;html=1;aspect=fixed;" parent="1" vertex="1">
          <mxGeometry x="-580" y="240" width="10" height="10" as="geometry" />
        </mxCell>
        <mxCell id="8C3JMdhvOC04TNl1LNUp-49" value="" style="endArrow=classic;html=1;rounded=0;exitX=0.5;exitY=1;exitDx=0;exitDy=0;" parent="1" source="8C3JMdhvOC04TNl1LNUp-48" edge="1">
          <mxGeometry width="50" height="50" relative="1" as="geometry">
            <mxPoint x="-570" y="290" as="sourcePoint" />
            <mxPoint x="-575" y="300" as="targetPoint" />
          </mxGeometry>
        </mxCell>
        <mxCell id="8C3JMdhvOC04TNl1LNUp-50" value="Registered&lt;br style=&quot;border-color: var(--border-color);&quot;&gt;&amp;nbsp;Staff Info" style="edgeLabel;html=1;align=center;verticalAlign=middle;resizable=0;points=[];" parent="8C3JMdhvOC04TNl1LNUp-49" vertex="1" connectable="0">
          <mxGeometry x="-0.4267" y="7" relative="1" as="geometry">
            <mxPoint x="28" y="6" as="offset" />
          </mxGeometry>
        </mxCell>
        <mxCell id="8C3JMdhvOC04TNl1LNUp-51" value="" style="ellipse;whiteSpace=wrap;html=1;aspect=fixed;" parent="1" vertex="1">
          <mxGeometry x="-250" y="240" width="10" height="10" as="geometry" />
        </mxCell>
        <mxCell id="8C3JMdhvOC04TNl1LNUp-52" value="" style="endArrow=classic;html=1;rounded=0;exitX=0.5;exitY=1;exitDx=0;exitDy=0;" parent="1" source="8C3JMdhvOC04TNl1LNUp-51" edge="1">
          <mxGeometry width="50" height="50" relative="1" as="geometry">
            <mxPoint x="-240" y="290" as="sourcePoint" />
            <mxPoint x="-245" y="300" as="targetPoint" />
          </mxGeometry>
        </mxCell>
        <mxCell id="8C3JMdhvOC04TNl1LNUp-53" value="Registered&lt;br style=&quot;border-color: var(--border-color);&quot;&gt;&amp;nbsp;Manager Info" style="edgeLabel;html=1;align=center;verticalAlign=middle;resizable=0;points=[];" parent="8C3JMdhvOC04TNl1LNUp-52" vertex="1" connectable="0">
          <mxGeometry x="-0.4267" y="7" relative="1" as="geometry">
            <mxPoint x="28" y="6" as="offset" />
          </mxGeometry>
        </mxCell>
        <mxCell id="8C3JMdhvOC04TNl1LNUp-60" value="" style="ellipse;whiteSpace=wrap;html=1;" parent="1" vertex="1">
          <mxGeometry x="-740" y="240" width="10" height="10" as="geometry" />
        </mxCell>
        <mxCell id="8C3JMdhvOC04TNl1LNUp-61" value="" style="endArrow=classic;html=1;rounded=0;exitX=0.5;exitY=1;exitDx=0;exitDy=0;" parent="1" source="8C3JMdhvOC04TNl1LNUp-60" edge="1">
          <mxGeometry width="50" height="50" relative="1" as="geometry">
            <mxPoint x="-730" y="300" as="sourcePoint" />
            <mxPoint x="-735" y="300" as="targetPoint" />
          </mxGeometry>
        </mxCell>
        <mxCell id="8C3JMdhvOC04TNl1LNUp-62" value="Personal &amp;amp;&lt;br&gt;Employment&lt;br style=&quot;border-color: var(--border-color);&quot;&gt;Info" style="edgeLabel;html=1;align=center;verticalAlign=middle;resizable=0;points=[];" parent="8C3JMdhvOC04TNl1LNUp-61" vertex="1" connectable="0">
          <mxGeometry x="-0.5467" y="5" relative="1" as="geometry">
            <mxPoint x="30" y="9" as="offset" />
          </mxGeometry>
        </mxCell>
        <mxCell id="8C3JMdhvOC04TNl1LNUp-63" value="" style="ellipse;whiteSpace=wrap;html=1;" parent="1" vertex="1">
          <mxGeometry x="-410" y="240" width="10" height="10" as="geometry" />
        </mxCell>
        <mxCell id="8C3JMdhvOC04TNl1LNUp-64" value="" style="endArrow=classic;html=1;rounded=0;exitX=0.5;exitY=1;exitDx=0;exitDy=0;" parent="1" source="8C3JMdhvOC04TNl1LNUp-63" edge="1">
          <mxGeometry width="50" height="50" relative="1" as="geometry">
            <mxPoint x="-400" y="300" as="sourcePoint" />
            <mxPoint x="-405" y="300" as="targetPoint" />
          </mxGeometry>
        </mxCell>
        <mxCell id="8C3JMdhvOC04TNl1LNUp-65" value="Personal &amp;amp;&lt;br&gt;Building&lt;br style=&quot;border-color: var(--border-color);&quot;&gt;Info" style="edgeLabel;html=1;align=center;verticalAlign=middle;resizable=0;points=[];" parent="8C3JMdhvOC04TNl1LNUp-64" vertex="1" connectable="0">
          <mxGeometry x="-0.5467" y="5" relative="1" as="geometry">
            <mxPoint x="30" y="9" as="offset" />
          </mxGeometry>
        </mxCell>
        <mxCell id="8C3JMdhvOC04TNl1LNUp-82" value="" style="endArrow=classic;html=1;rounded=0;exitX=0.5;exitY=0;exitDx=0;exitDy=0;" parent="1" edge="1">
          <mxGeometry width="50" height="50" relative="1" as="geometry">
            <mxPoint x="-115" y="330" as="sourcePoint" />
            <mxPoint x="-115" y="280" as="targetPoint" />
          </mxGeometry>
        </mxCell>
        <mxCell id="8C3JMdhvOC04TNl1LNUp-83" value="Confirmation" style="edgeLabel;html=1;align=center;verticalAlign=middle;resizable=0;points=[];" parent="8C3JMdhvOC04TNl1LNUp-82" vertex="1" connectable="0">
          <mxGeometry x="-0.3733" y="6" relative="1" as="geometry">
            <mxPoint x="-29" y="1" as="offset" />
          </mxGeometry>
        </mxCell>
        <mxCell id="8C3JMdhvOC04TNl1LNUp-84" value="" style="ellipse;whiteSpace=wrap;html=1;" parent="1" vertex="1">
          <mxGeometry x="-90" y="240" width="10" height="10" as="geometry" />
        </mxCell>
        <mxCell id="8C3JMdhvOC04TNl1LNUp-85" value="" style="endArrow=classic;html=1;rounded=0;exitX=0.5;exitY=1;exitDx=0;exitDy=0;" parent="1" source="8C3JMdhvOC04TNl1LNUp-84" edge="1">
          <mxGeometry width="50" height="50" relative="1" as="geometry">
            <mxPoint x="-80" y="300" as="sourcePoint" />
            <mxPoint x="-85" y="300" as="targetPoint" />
          </mxGeometry>
        </mxCell>
        <mxCell id="8C3JMdhvOC04TNl1LNUp-86" value="Location &amp;amp; &lt;br&gt;Type of Issue" style="edgeLabel;html=1;align=center;verticalAlign=middle;resizable=0;points=[];" parent="8C3JMdhvOC04TNl1LNUp-85" vertex="1" connectable="0">
          <mxGeometry x="-0.5467" y="5" relative="1" as="geometry">
            <mxPoint x="30" y="9" as="offset" />
          </mxGeometry>
        </mxCell>
        <mxCell id="8C3JMdhvOC04TNl1LNUp-90" value="" style="ellipse;whiteSpace=wrap;html=1;" parent="1" vertex="1">
          <mxGeometry x="70" y="240" width="10" height="10" as="geometry" />
        </mxCell>
        <mxCell id="8C3JMdhvOC04TNl1LNUp-91" value="" style="endArrow=classic;html=1;rounded=0;exitX=0.5;exitY=1;exitDx=0;exitDy=0;" parent="1" source="8C3JMdhvOC04TNl1LNUp-90" edge="1">
          <mxGeometry width="50" height="50" relative="1" as="geometry">
            <mxPoint x="80" y="300" as="sourcePoint" />
            <mxPoint x="75" y="300" as="targetPoint" />
          </mxGeometry>
        </mxCell>
        <mxCell id="8C3JMdhvOC04TNl1LNUp-92" value="Staff &lt;br&gt;Requirements" style="edgeLabel;html=1;align=center;verticalAlign=middle;resizable=0;points=[];" parent="8C3JMdhvOC04TNl1LNUp-91" vertex="1" connectable="0">
          <mxGeometry x="-0.5467" y="5" relative="1" as="geometry">
            <mxPoint x="40" y="9" as="offset" />
          </mxGeometry>
        </mxCell>
        <mxCell id="8C3JMdhvOC04TNl1LNUp-94" value="" style="endArrow=classic;html=1;rounded=0;exitX=0.5;exitY=0;exitDx=0;exitDy=0;" parent="1" edge="1">
          <mxGeometry width="50" height="50" relative="1" as="geometry">
            <mxPoint x="45" y="330" as="sourcePoint" />
            <mxPoint x="45" y="280" as="targetPoint" />
          </mxGeometry>
        </mxCell>
        <mxCell id="8C3JMdhvOC04TNl1LNUp-95" value="Confirmation" style="edgeLabel;html=1;align=center;verticalAlign=middle;resizable=0;points=[];" parent="8C3JMdhvOC04TNl1LNUp-94" vertex="1" connectable="0">
          <mxGeometry x="-0.3733" y="6" relative="1" as="geometry">
            <mxPoint x="-39" y="-4" as="offset" />
          </mxGeometry>
        </mxCell>
        <mxCell id="8C3JMdhvOC04TNl1LNUp-96" value="" style="ellipse;whiteSpace=wrap;html=1;" parent="1" vertex="1">
          <mxGeometry x="200" y="330" width="10" height="10" as="geometry" />
        </mxCell>
        <mxCell id="8C3JMdhvOC04TNl1LNUp-97" value="" style="endArrow=classic;html=1;rounded=0;exitX=0.5;exitY=0;exitDx=0;exitDy=0;" parent="1" source="8C3JMdhvOC04TNl1LNUp-96" edge="1">
          <mxGeometry width="50" height="50" relative="1" as="geometry">
            <mxPoint x="470" y="240" as="sourcePoint" />
            <mxPoint x="205" y="280" as="targetPoint" />
          </mxGeometry>
        </mxCell>
        <mxCell id="8C3JMdhvOC04TNl1LNUp-98" value="Notification" style="edgeLabel;html=1;align=center;verticalAlign=middle;resizable=0;points=[];" parent="8C3JMdhvOC04TNl1LNUp-97" vertex="1" connectable="0">
          <mxGeometry x="-0.3733" y="6" relative="1" as="geometry">
            <mxPoint x="-29" y="-4" as="offset" />
          </mxGeometry>
        </mxCell>
        <mxCell id="8C3JMdhvOC04TNl1LNUp-99" value="" style="ellipse;whiteSpace=wrap;html=1;" parent="1" vertex="1">
          <mxGeometry x="230" y="240" width="10" height="10" as="geometry" />
        </mxCell>
        <mxCell id="8C3JMdhvOC04TNl1LNUp-100" value="" style="endArrow=classic;html=1;rounded=0;exitX=0.5;exitY=1;exitDx=0;exitDy=0;" parent="1" source="8C3JMdhvOC04TNl1LNUp-99" edge="1">
          <mxGeometry width="50" height="50" relative="1" as="geometry">
            <mxPoint x="240" y="300" as="sourcePoint" />
            <mxPoint x="235" y="300" as="targetPoint" />
          </mxGeometry>
        </mxCell>
        <mxCell id="8C3JMdhvOC04TNl1LNUp-101" value="New&lt;br&gt;Status" style="edgeLabel;html=1;align=center;verticalAlign=middle;resizable=0;points=[];" parent="8C3JMdhvOC04TNl1LNUp-100" vertex="1" connectable="0">
          <mxGeometry x="-0.5467" y="5" relative="1" as="geometry">
            <mxPoint x="20" y="9" as="offset" />
          </mxGeometry>
        </mxCell>
        <mxCell id="8C3JMdhvOC04TNl1LNUp-105" value="" style="ellipse;whiteSpace=wrap;html=1;" parent="1" vertex="1">
          <mxGeometry x="390" y="240" width="10" height="10" as="geometry" />
        </mxCell>
        <mxCell id="8C3JMdhvOC04TNl1LNUp-106" value="" style="endArrow=classic;html=1;rounded=0;exitX=0.5;exitY=1;exitDx=0;exitDy=0;" parent="1" source="8C3JMdhvOC04TNl1LNUp-105" edge="1">
          <mxGeometry width="50" height="50" relative="1" as="geometry">
            <mxPoint x="400" y="300" as="sourcePoint" />
            <mxPoint x="395" y="300" as="targetPoint" />
          </mxGeometry>
        </mxCell>
        <mxCell id="8C3JMdhvOC04TNl1LNUp-107" value="Changed &lt;br&gt;Status" style="edgeLabel;html=1;align=center;verticalAlign=middle;resizable=0;points=[];" parent="8C3JMdhvOC04TNl1LNUp-106" vertex="1" connectable="0">
          <mxGeometry x="-0.5467" y="5" relative="1" as="geometry">
            <mxPoint x="25" y="9" as="offset" />
          </mxGeometry>
        </mxCell>
        <mxCell id="8C3JMdhvOC04TNl1LNUp-110" value="" style="ellipse;whiteSpace=wrap;html=1;" parent="1" vertex="1">
          <mxGeometry x="360" y="330" width="10" height="10" as="geometry" />
        </mxCell>
        <mxCell id="8C3JMdhvOC04TNl1LNUp-111" value="" style="endArrow=classic;html=1;rounded=0;exitX=0.5;exitY=0;exitDx=0;exitDy=0;" parent="1" source="8C3JMdhvOC04TNl1LNUp-110" edge="1">
          <mxGeometry width="50" height="50" relative="1" as="geometry">
            <mxPoint x="630" y="240" as="sourcePoint" />
            <mxPoint x="365" y="280" as="targetPoint" />
          </mxGeometry>
        </mxCell>
        <mxCell id="8C3JMdhvOC04TNl1LNUp-112" value="Feedback" style="edgeLabel;html=1;align=center;verticalAlign=middle;resizable=0;points=[];" parent="8C3JMdhvOC04TNl1LNUp-111" vertex="1" connectable="0">
          <mxGeometry x="-0.3733" y="6" relative="1" as="geometry">
            <mxPoint x="-29" y="-4" as="offset" />
          </mxGeometry>
        </mxCell>
        <mxCell id="8C3JMdhvOC04TNl1LNUp-114" value="" style="ellipse;whiteSpace=wrap;html=1;" parent="1" vertex="1">
          <mxGeometry x="700" y="240" width="10" height="10" as="geometry" />
        </mxCell>
        <mxCell id="8C3JMdhvOC04TNl1LNUp-115" value="" style="endArrow=classic;html=1;rounded=0;exitX=0.5;exitY=1;exitDx=0;exitDy=0;" parent="1" source="8C3JMdhvOC04TNl1LNUp-114" edge="1">
          <mxGeometry width="50" height="50" relative="1" as="geometry">
            <mxPoint x="710" y="300" as="sourcePoint" />
            <mxPoint x="705" y="300" as="targetPoint" />
          </mxGeometry>
        </mxCell>
        <mxCell id="8C3JMdhvOC04TNl1LNUp-116" value="All Expenses &amp;amp;&lt;br&gt;Payments" style="edgeLabel;html=1;align=center;verticalAlign=middle;resizable=0;points=[];" parent="8C3JMdhvOC04TNl1LNUp-115" vertex="1" connectable="0">
          <mxGeometry x="-0.5467" y="5" relative="1" as="geometry">
            <mxPoint x="40" y="9" as="offset" />
          </mxGeometry>
        </mxCell>
        <mxCell id="8C3JMdhvOC04TNl1LNUp-117" value="" style="ellipse;whiteSpace=wrap;html=1;" parent="1" vertex="1">
          <mxGeometry x="540" y="240" width="10" height="10" as="geometry" />
        </mxCell>
        <mxCell id="8C3JMdhvOC04TNl1LNUp-118" value="" style="endArrow=classic;html=1;rounded=0;exitX=0.5;exitY=1;exitDx=0;exitDy=0;" parent="1" source="8C3JMdhvOC04TNl1LNUp-117" edge="1">
          <mxGeometry width="50" height="50" relative="1" as="geometry">
            <mxPoint x="550" y="300" as="sourcePoint" />
            <mxPoint x="545" y="300" as="targetPoint" />
          </mxGeometry>
        </mxCell>
        <mxCell id="8C3JMdhvOC04TNl1LNUp-119" value="Maintenance&lt;br&gt;Expenses" style="edgeLabel;html=1;align=center;verticalAlign=middle;resizable=0;points=[];" parent="8C3JMdhvOC04TNl1LNUp-118" vertex="1" connectable="0">
          <mxGeometry x="-0.5467" y="5" relative="1" as="geometry">
            <mxPoint x="40" y="9" as="offset" />
          </mxGeometry>
        </mxCell>
        <mxCell id="8C3JMdhvOC04TNl1LNUp-120" value="" style="ellipse;whiteSpace=wrap;html=1;" parent="1" vertex="1">
          <mxGeometry x="510" y="330" width="10" height="10" as="geometry" />
        </mxCell>
        <mxCell id="8C3JMdhvOC04TNl1LNUp-121" value="" style="endArrow=classic;html=1;rounded=0;exitX=0.5;exitY=0;exitDx=0;exitDy=0;" parent="1" source="8C3JMdhvOC04TNl1LNUp-120" edge="1">
          <mxGeometry width="50" height="50" relative="1" as="geometry">
            <mxPoint x="780" y="240" as="sourcePoint" />
            <mxPoint x="515" y="280" as="targetPoint" />
          </mxGeometry>
        </mxCell>
        <mxCell id="8C3JMdhvOC04TNl1LNUp-122" value="&amp;nbsp;Calculated&lt;br&gt;Expenses" style="edgeLabel;html=1;align=center;verticalAlign=middle;resizable=0;points=[];" parent="8C3JMdhvOC04TNl1LNUp-121" vertex="1" connectable="0">
          <mxGeometry x="-0.3733" y="6" relative="1" as="geometry">
            <mxPoint x="-29" y="-4" as="offset" />
          </mxGeometry>
        </mxCell>
        <mxCell id="8C3JMdhvOC04TNl1LNUp-123" value="" style="ellipse;whiteSpace=wrap;html=1;" parent="1" vertex="1">
          <mxGeometry x="670" y="330" width="10" height="10" as="geometry" />
        </mxCell>
        <mxCell id="8C3JMdhvOC04TNl1LNUp-124" value="" style="endArrow=classic;html=1;rounded=0;exitX=0.5;exitY=0;exitDx=0;exitDy=0;" parent="1" source="8C3JMdhvOC04TNl1LNUp-123" edge="1">
          <mxGeometry width="50" height="50" relative="1" as="geometry">
            <mxPoint x="940" y="240" as="sourcePoint" />
            <mxPoint x="675" y="280" as="targetPoint" />
          </mxGeometry>
        </mxCell>
        <mxCell id="8C3JMdhvOC04TNl1LNUp-125" value="Payments&amp;nbsp;" style="edgeLabel;html=1;align=center;verticalAlign=middle;resizable=0;points=[];" parent="8C3JMdhvOC04TNl1LNUp-124" vertex="1" connectable="0">
          <mxGeometry x="-0.3733" y="6" relative="1" as="geometry">
            <mxPoint x="-29" y="1" as="offset" />
          </mxGeometry>
        </mxCell>
        <mxCell id="QQ7A2Liw92uY5hznJiQE-1" value="" style="ellipse;whiteSpace=wrap;html=1;" parent="1" vertex="1">
          <mxGeometry x="1110" y="240" width="10" height="10" as="geometry" />
        </mxCell>
        <mxCell id="QQ7A2Liw92uY5hznJiQE-2" value="" style="endArrow=classic;html=1;rounded=0;exitX=0.5;exitY=1;exitDx=0;exitDy=0;" parent="1" source="QQ7A2Liw92uY5hznJiQE-1" edge="1">
          <mxGeometry width="50" height="50" relative="1" as="geometry">
            <mxPoint x="1120" y="300" as="sourcePoint" />
            <mxPoint x="1115" y="300" as="targetPoint" />
          </mxGeometry>
        </mxCell>
        <mxCell id="QQ7A2Liw92uY5hznJiQE-3" value="Staff &lt;br&gt;Feedback" style="edgeLabel;html=1;align=center;verticalAlign=middle;resizable=0;points=[];" parent="QQ7A2Liw92uY5hznJiQE-2" vertex="1" connectable="0">
          <mxGeometry x="-0.5467" y="5" relative="1" as="geometry">
            <mxPoint x="30" y="9" as="offset" />
          </mxGeometry>
        </mxCell>
        <mxCell id="QQ7A2Liw92uY5hznJiQE-4" value="" style="ellipse;whiteSpace=wrap;html=1;" parent="1" vertex="1">
          <mxGeometry x="1270" y="240" width="10" height="10" as="geometry" />
        </mxCell>
        <mxCell id="QQ7A2Liw92uY5hznJiQE-5" value="" style="endArrow=classic;html=1;rounded=0;exitX=0.5;exitY=1;exitDx=0;exitDy=0;" parent="1" source="QQ7A2Liw92uY5hznJiQE-4" edge="1">
          <mxGeometry width="50" height="50" relative="1" as="geometry">
            <mxPoint x="1280" y="300" as="sourcePoint" />
            <mxPoint x="1275" y="300" as="targetPoint" />
          </mxGeometry>
        </mxCell>
        <mxCell id="QQ7A2Liw92uY5hznJiQE-6" value="Owner&amp;nbsp;&lt;br&gt;Feedback" style="edgeLabel;html=1;align=center;verticalAlign=middle;resizable=0;points=[];" parent="QQ7A2Liw92uY5hznJiQE-5" vertex="1" connectable="0">
          <mxGeometry x="-0.5467" y="5" relative="1" as="geometry">
            <mxPoint x="30" y="9" as="offset" />
          </mxGeometry>
        </mxCell>
        <mxCell id="QQ7A2Liw92uY5hznJiQE-7" value="" style="ellipse;whiteSpace=wrap;html=1;" parent="1" vertex="1">
          <mxGeometry x="1400" y="305" width="10" height="10" as="geometry" />
        </mxCell>
        <mxCell id="QQ7A2Liw92uY5hznJiQE-8" value="" style="endArrow=classic;html=1;rounded=0;exitX=0.5;exitY=1;exitDx=0;exitDy=0;" parent="1" source="QQ7A2Liw92uY5hznJiQE-7" edge="1">
          <mxGeometry width="50" height="50" relative="1" as="geometry">
            <mxPoint x="1410" y="365" as="sourcePoint" />
            <mxPoint x="1405" y="365" as="targetPoint" />
          </mxGeometry>
        </mxCell>
        <mxCell id="QQ7A2Liw92uY5hznJiQE-9" value="Existing&amp;nbsp;&lt;br&gt;Manager ID" style="edgeLabel;html=1;align=center;verticalAlign=middle;resizable=0;points=[];" parent="QQ7A2Liw92uY5hznJiQE-8" vertex="1" connectable="0">
          <mxGeometry x="-0.5467" y="5" relative="1" as="geometry">
            <mxPoint x="-40" y="9" as="offset" />
          </mxGeometry>
        </mxCell>
        <mxCell id="QQ7A2Liw92uY5hznJiQE-10" value="" style="ellipse;whiteSpace=wrap;html=1;" parent="1" vertex="1">
          <mxGeometry x="1430" y="240" width="10" height="10" as="geometry" />
        </mxCell>
        <mxCell id="QQ7A2Liw92uY5hznJiQE-11" value="" style="endArrow=classic;html=1;rounded=0;exitX=0.5;exitY=1;exitDx=0;exitDy=0;" parent="1" source="QQ7A2Liw92uY5hznJiQE-10" edge="1">
          <mxGeometry width="50" height="50" relative="1" as="geometry">
            <mxPoint x="1440" y="300" as="sourcePoint" />
            <mxPoint x="1435" y="300" as="targetPoint" />
          </mxGeometry>
        </mxCell>
        <mxCell id="QQ7A2Liw92uY5hznJiQE-12" value="New Manager&lt;br&gt;&amp;nbsp;Details" style="edgeLabel;html=1;align=center;verticalAlign=middle;resizable=0;points=[];" parent="QQ7A2Liw92uY5hznJiQE-11" vertex="1" connectable="0">
          <mxGeometry x="-0.5467" y="5" relative="1" as="geometry">
            <mxPoint x="30" y="9" as="offset" />
          </mxGeometry>
        </mxCell>
        <mxCell id="QQ7A2Liw92uY5hznJiQE-14" value="" style="ellipse;whiteSpace=wrap;html=1;" parent="1" vertex="1">
          <mxGeometry x="1560" y="350" width="10" height="10" as="geometry" />
        </mxCell>
        <mxCell id="QQ7A2Liw92uY5hznJiQE-15" value="" style="endArrow=classic;html=1;rounded=0;exitX=0.5;exitY=0;exitDx=0;exitDy=0;" parent="1" source="QQ7A2Liw92uY5hznJiQE-14" edge="1">
          <mxGeometry width="50" height="50" relative="1" as="geometry">
            <mxPoint x="1830" y="260" as="sourcePoint" />
            <mxPoint x="1565" y="300" as="targetPoint" />
          </mxGeometry>
        </mxCell>
        <mxCell id="QQ7A2Liw92uY5hznJiQE-17" value="Manager &lt;br&gt;info" style="edgeLabel;html=1;align=center;verticalAlign=middle;resizable=0;points=[];" parent="QQ7A2Liw92uY5hznJiQE-15" vertex="1" connectable="0">
          <mxGeometry x="-0.52" y="-4" relative="1" as="geometry">
            <mxPoint x="-29" y="-8" as="offset" />
          </mxGeometry>
        </mxCell>
        <mxCell id="QQ7A2Liw92uY5hznJiQE-18" value="" style="ellipse;fillColor=strokeColor;html=1;" parent="1" vertex="1">
          <mxGeometry x="-770" y="330" width="10" height="10" as="geometry" />
        </mxCell>
        <mxCell id="QQ7A2Liw92uY5hznJiQE-27" value="" style="ellipse;fillColor=strokeColor;html=1;" parent="1" vertex="1">
          <mxGeometry x="-1080" y="330" width="10" height="10" as="geometry" />
        </mxCell>
        <mxCell id="QQ7A2Liw92uY5hznJiQE-28" value="" style="endArrow=classic;html=1;rounded=0;edgeStyle=orthogonalEdgeStyle;curved=1;exitX=1;exitY=1;exitDx=0;exitDy=0;" parent="1" source="mLs_Ntx7UXhHXpNAd6NU-9" edge="1">
          <mxGeometry width="50" height="50" relative="1" as="geometry">
            <mxPoint x="-930" y="220" as="sourcePoint" />
            <mxPoint x="-1020" y="220" as="targetPoint" />
            <Array as="points">
              <mxPoint x="-940" y="240" />
              <mxPoint x="-1020" y="240" />
            </Array>
          </mxGeometry>
        </mxCell>
        <mxCell id="QQ7A2Liw92uY5hznJiQE-30" value="" style="endArrow=classic;html=1;rounded=0;edgeStyle=orthogonalEdgeStyle;curved=1;exitX=1;exitY=1;exitDx=0;exitDy=0;" parent="1" edge="1">
          <mxGeometry width="50" height="50" relative="1" as="geometry">
            <mxPoint x="-630" y="220" as="sourcePoint" />
            <mxPoint x="-710" y="220" as="targetPoint" />
            <Array as="points">
              <mxPoint x="-630" y="240" />
              <mxPoint x="-710" y="240" />
            </Array>
          </mxGeometry>
        </mxCell>
        <mxCell id="QQ7A2Liw92uY5hznJiQE-32" value="" style="endArrow=classic;html=1;rounded=0;edgeStyle=orthogonalEdgeStyle;curved=1;exitX=1;exitY=1;exitDx=0;exitDy=0;" parent="1" edge="1">
          <mxGeometry width="50" height="50" relative="1" as="geometry">
            <mxPoint x="-300" y="220" as="sourcePoint" />
            <mxPoint x="-380" y="220" as="targetPoint" />
            <Array as="points">
              <mxPoint x="-300" y="240" />
              <mxPoint x="-380" y="240" />
            </Array>
          </mxGeometry>
        </mxCell>
        <mxCell id="QQ7A2Liw92uY5hznJiQE-33" value="" style="ellipse;fillColor=strokeColor;html=1;" parent="1" vertex="1">
          <mxGeometry x="-120" y="330" width="10" height="10" as="geometry" />
        </mxCell>
        <mxCell id="QQ7A2Liw92uY5hznJiQE-35" value="" style="ellipse;fillColor=strokeColor;html=1;" parent="1" vertex="1">
          <mxGeometry x="40" y="330" width="10" height="10" as="geometry" />
        </mxCell>
      </root>
    </mxGraphModel>
  </diagram>
</mxfile>
